<svg width="32" height="32" viewBox="0 0 32 32" fill="none" xmlns="http://www.w3.org/2000/svg">
<path fill-rule="evenodd" clip-rule="evenodd" d="M24.9428 8.94283C25.4635 8.42213 25.4635 7.57791 24.9428 7.05721C24.4221 6.53651 23.5779 6.53651 23.0572 7.05721L16 14.1144L8.94283 7.05721C8.42213 6.53651 7.57791 6.53651 7.05721 7.05721C6.53651 7.57791 6.53651 8.42213 7.05721 8.94283L14.1144 16L7.05721 23.0572C6.53651 23.5779 6.53651 24.4221 7.05721 24.9428C7.57791 25.4635 8.42213 25.4635 8.94283 24.9428L16 17.8856L23.0572 24.9428C23.5779 25.4635 24.4221 25.4635 24.9428 24.9428C25.4635 24.4221 25.4635 23.5779 24.9428 23.0572L17.8856 16L24.9428 8.94283Z" fill="#F5F5F0"/>
</svg>
